<?xml version="1.0" encoding="utf-8"?>
<!-- Generator: Adobe Illustrator 26.3.1, SVG Export Plug-In . SVG Version: 6.00 Build 0)  -->
<svg version="1.1" id="Capa_1" xmlns="http://www.w3.org/2000/svg" xmlns:xlink="http://www.w3.org/1999/xlink" x="0px" y="0px"
	 viewBox="0 0 357 127" enable-background="new 0 0 357 127" xml:space="preserve">
<g>
	<g>
		<path fill="#1B3072" d="M33.2,85.9c-9.8,0-19.6-0.1-29.4,0.1c-2.8,0-3.6-0.8-3.6-3.6c0.1-19.5,0-38.9,0.1-58.4
			c0-1.5-0.8-3.7,1.8-3.8c2.2-0.1,3.2,1.1,3.3,3.4s0.7,4.6,1,6.9c0.3,1.7,1.4,2.6,3,2.8c1.5,0.1,2.4-0.5,3-2c1-2.5,2.2-4.8,3.2-7.3
			c0.6-1.4,1.4-2.2,3.1-1.7c1.6,0.5,2.6,1.3,2.3,3.2c-0.4,2.6-0.6,5.3-0.9,7.9c-0.2,1.5,0.1,2.7,1.6,3.3c1.5,0.6,2.9,0.4,4-1
			c1.5-2,3.2-3.8,4.7-5.8c1-1.4,2-1.9,3.8-1c1.9,0.9,1.6,2.2,1,3.7c-0.9,2.3-1.7,4.7-2.6,7c-0.7,1.6-0.3,3,0.9,4
			c1.4,1.1,2.7,0.7,4.1-0.3c1.6-1.2,3.2-2.4,4.8-3.5c1.5-1.1,2.8-2.6,4.7-0.7c2.2,2.1,0.5,3.5-0.6,5.1c-1.1,1.5-2.1,3-3.2,4.4
			c-0.9,1.2-1.9,2.5-0.6,4c1.2,1.3,2.6,1.9,4.5,1.1c2-0.9,4-1.7,6-2.4c1.6-0.6,3.1-0.9,4.3,0.9c1.3,2,0,3-1.4,4
			c-1.9,1.4-3.6,3-5.5,4.3c-1.4,1-1.9,2.3-1.3,3.9c0.6,1.5,1.9,2.2,3.6,2c2.3-0.3,4.6-0.5,6.9-0.8c1.5-0.2,3-0.5,3.6,1.6
			s-0.3,3.1-2.1,3.9c-2.1,0.9-4.2,2-6.3,2.9c-1.6,0.7-2.3,1.7-2.1,3.5c0.3,1.7,1.2,2.5,3,2.7c2.3,0.2,4.6,0.7,6.9,0.9
			c2.1,0.2,3,1.4,3,3.2c0.1,2.4-1.9,1.9-3.2,1.9C52.8,85.9,43,85.9,33.2,85.9z"/>
		<path fill="#1C3173" d="M0.1,1.7c1-0.8,2.4-0.4,3.6-0.4c25.8,0,51.6,0,77.4,0c2.6,0,4.7-0.3,4.7,3.7c-0.2,26.4-0.1,52.9-0.1,79.3
			c0,0.6-0.2,1.2-0.3,2.3C79.5,35.1,51.3,6.9,0.1,1.7z"/>
		<path fill="#F4F5F8" d="M14,82.7c-2.1-0.8-5.4-0.3-5.8-2.8c-0.3-2.2,2.6-3.1,4.7-3.8c3-1,5.9-0.5,8.5,1.4c0.7,0.5,0.6,1.1,0.1,1.6
			C19.5,81.5,16.7,82,14,82.7z"/>
		<path fill="#F7F8F9" d="M22.2,65.4c3.3-4,7.3-5.2,12-3.6c2.9,1,2.7,2.4,0.5,4C30.5,68.7,26.4,68.5,22.2,65.4z"/>
		<path fill="#F7F8F9" d="M20.5,63.6c-3.1-4.1-3.1-8.1-0.5-12.1c0.6-0.9,1.4-2.2,2.6-1.8c0.7,0.2,1.2,1.5,1.5,2.4
			C25.3,56.4,24.3,60.2,20.5,63.6z"/>
		<path fill="#F1F2F6" d="M10.1,69.8c-0.5,3.1-1.2,5.7-3.5,7.6C6,77.9,5.4,77.8,5,77.1c-1.4-2.5-2-5.2-1-8c0.7-2,1.7-5.1,3.5-4.8
			C10,64.6,9.5,67.9,10.1,69.8z"/>
		<path fill="#F8F9FA" d="M24.4,68.6c-0.2,0,0.6-0.1,1.4,0.2c1.2,0.4,2.9,0.7,3.1,2.1c0.3,1.5-1.4,2.1-2.4,2.8
			c-0.7,0.5-1.5,0.8-2.3,1c-3,0.6-6,0.6-8.6-1.4c-0.6-0.5-0.5-1.2,0-1.7C17.8,69.4,20.3,68.4,24.4,68.6z"/>
		<path fill="#F7F8F9" d="M17.2,62.8c0,2.8-1.1,5.3-3.3,7.3c-0.6,0.6-1.2,0.4-1.7-0.2c-1.6-2.5-1.9-5.3-1-8.1c0.6-2,1.6-4.9,3.7-4.6
			C17.1,57.5,17.2,60.5,17.2,62.8z"/>
		<path fill="#F7F8F9" d="M28.6,58.6c-1.6,0.2-1.5-0.9-1.4-1.9c0-3.4,4.5-8,8-8.3c1.5-0.1,2.1,0.3,2.1,1.8
			C37.3,53.4,31.9,58.7,28.6,58.6z"/>
	</g>
	<g>
		<path fill="#1C3173" d="M189.3,74.3c-7.2,7.3-18.9,13.5-34.9,13.5s-27.7-6.2-34.9-13.5c-6.5-6.7-11.7-17-11.7-30.5
			c0-13.3,5.2-23.7,11.7-30.4c7.2-7.3,18.9-13.5,34.9-13.5s27.7,6.2,34.9,13.5c6.5,6.7,11.7,17,11.7,30.4
			C201,57.3,195.8,67.6,189.3,74.3z M143.4,31.4c-3,3.1-4.8,8.1-4.8,12.6c0,4.8,1.8,9.4,4.8,12.5c2.5,2.5,6.3,4.3,11,4.3
			s8.4-1.8,11-4.3c2.8-2.8,4.8-7.2,4.8-12.5s-1.8-9.7-4.8-12.6c-2.3-2.3-5.9-4.3-11-4.3C149,27.1,145.5,29.2,143.4,31.4z"/>
		<path fill="#1C3173" d="M214.1,85.9v-84H252c8.8,0,18,1,25.7,8.7c4.3,4.3,7.9,10.7,7.9,20.7c0,7.4-2.3,12.1-4.7,15
			c-2.5,3.1-6.7,5.7-11.6,6.7v0.8c1.6,0.9,3.3,2.1,4.4,3.9L292.6,86h-35.1l-12.1-24.6c-0.4-0.9-0.8-1.3-1.1-2.6l-0.5,0.3V86h-29.7
			V85.9z M243.8,39.3h3.5c1.8,0,4.5-0.3,6.4-1.9c1-0.9,2.1-2.5,2.1-5.2c0-1.9-0.5-3.8-1.6-5c-1-1.1-2.6-2.3-5.2-2.3h-5.2V39.3z"/>
		<path fill="#1C3173" d="M310,85.9V28.5l-17.1,0.8V2h64.2v27.3L340,28.5v57.4H310z"/>
	</g>
</g>
<g>
	<path fill="#1C3173" d="M19,125.1c-2.5,0.9-3.9,1.2-5.4,1.2c-4.2,0-7.3-1.7-9.3-3.6c-2.3-2.3-3.6-5.6-3.6-8.7
		c0-3.4,1.5-6.7,3.6-8.9s5.3-3.7,9.1-3.7c1.2,0,3,0.2,5.6,1.2v7.5c-2-2.5-4.4-2.6-5.4-2.6c-1.8,0-3.2,0.5-4.3,1.6
		c-1.5,1.4-2.1,3.2-2.1,4.9s0.7,3.5,1.9,4.7c1,1,2.7,1.7,4.5,1.7c0.9,0,3.2-0.1,5.4-2.5V125.1z"/>
	<path fill="#1C3173" d="M44.6,122.7c-2.4,2.3-5.9,3.6-9.5,3.6s-7-1.2-9.5-3.6c-2.6-2.4-3.8-5.8-3.8-9s1.2-6.6,3.8-9
		c2.4-2.3,5.9-3.6,9.5-3.6s7,1.2,9.5,3.6c2.6,2.4,3.8,5.8,3.8,9S47.2,120.3,44.6,122.7z M30.3,109.1c-1.3,1.3-1.9,3-1.9,4.7
		c0,2.1,1,3.6,1.9,4.5c1.2,1.1,2.8,1.9,4.9,1.9c2.1,0,3.7-0.8,4.8-1.9c1.1-1.1,1.9-2.8,1.9-4.6c0-1.9-0.8-3.5-1.9-4.6
		c-1.3-1.3-3.2-1.9-4.8-1.9C33.4,107.2,31.6,107.8,30.3,109.1z"/>
	<path fill="#1C3173" d="M58.6,101.7v14.2c0,1,0,2.6,1.2,3.7c0.7,0.7,1.9,1.2,3,1.2s2.2-0.4,2.9-1c1.4-1.3,1.4-3,1.4-4.4v-13.7h6.2
		v13.8c0,2.5-0.1,5.1-2.7,7.8c-2,2.1-4.5,3-7.9,3c-3.8,0-6.5-1.3-8-2.9c-2.1-2.3-2.3-5.3-2.3-7.9v-13.8H58.6z"/>
	<path fill="#1C3173" d="M88,101.7c1.8,0,4.1,0.3,5.9,2.1c1.4,1.4,2.1,3.5,2.1,5.4c0,2.1-0.7,3.9-1.9,5c-0.9,0.9-2.2,1.4-3.3,1.7
		l7.5,9.8h-7.7l-6-9.2v9.2h-6.2v-24H88z M84.5,112.5h1.2c0.9,0,2.3-0.3,3-1c0.5-0.5,0.8-1.3,0.8-2s-0.3-1.5-0.8-2
		c-0.6-0.6-1.6-0.9-3-0.9h-1.2V112.5z"/>
	<path fill="#1C3173" d="M102.5,118.5c1.3,1.3,3.3,2.4,5.5,2.4c1.3,0,2-0.4,2.4-0.8c0.4-0.4,0.6-0.9,0.6-1.5c0-0.5-0.2-1-0.7-1.4
		c-0.6-0.5-1.5-0.8-3.1-1.3l-1.6-0.5c-1-0.3-2.5-0.9-3.5-1.9c-1.2-1.3-1.4-3-1.4-4.2c0-3,1.2-4.8,2.2-5.8c1.2-1.2,3.2-2.3,6.2-2.3
		c2.4,0,5.1,0.8,7.4,1.9L114,108c-1.9-1.5-3.3-1.6-4.1-1.6c-0.6,0-1.4,0.1-2.1,0.7c-0.4,0.4-0.6,0.8-0.6,1.3c0,0.4,0.1,0.8,0.3,1.1
		c0.2,0.2,0.6,0.6,2.1,1.1l1.9,0.6c1.5,0.5,3.1,1,4.4,2.4c1.2,1.3,1.5,2.6,1.5,4.3c0,2.2-0.5,4.3-2.3,6c-2.1,2.1-4.5,2.4-7.1,2.4
		c-1.5,0-3-0.1-4.7-0.8c-0.4-0.1-1.9-0.7-3.6-1.9L102.5,118.5z"/>
	<path fill="#1C3173" d="M135.1,107h-7.4v4h7v5.3h-7v4.1h7.4v5.3h-13.6v-24h13.6V107z"/>
	<path fill="#1C3173" d="M161.1,107h-7.4v4h7v5.3h-7v4.1h7.4v5.3h-13.6v-24h13.6V107z"/>
	<path fill="#1C3173" d="M171.9,112.9l-7.7-11.2h7.7l3.6,6.2l3.7-6.2h7.7l-7.8,11.2l9.1,12.8h-7.6l-5.1-7.8l-5.4,7.8h-7.5
		L171.9,112.9z"/>
	<path fill="#1C3173" d="M206.1,125.1c-2.5,0.9-3.9,1.2-5.4,1.2c-4.2,0-7.3-1.7-9.3-3.6c-2.3-2.3-3.6-5.6-3.6-8.7
		c0-3.4,1.5-6.7,3.6-8.9s5.3-3.7,9.1-3.7c1.2,0,3,0.2,5.6,1.2v7.5c-2-2.5-4.4-2.6-5.4-2.6c-1.8,0-3.2,0.5-4.3,1.6
		c-1.5,1.4-2.1,3.2-2.1,4.9s0.7,3.5,1.9,4.7c1,1,2.7,1.7,4.5,1.7c0.9,0,3.2-0.1,5.4-2.5V125.1z"/>
	<path fill="#1C3173" d="M216.3,110.7h9v-9h6.3v24h-6.3V116h-9v9.7h-6.2v-24h6.2V110.7z"/>
	<path fill="#1C3173" d="M251.2,121.7h-8.7l-1.6,4h-6.6l9.2-24h6.8l9,24h-6.7L251.2,121.7z M249.6,116.9l-2.7-7.8l-2.6,7.8H249.6z"
		/>
	<path fill="#1C3173" d="M262.1,125.7v-24h6.2l11.5,14.7v-14.7h6.2v24h-6.2L268.3,111v14.7H262.1z"/>
	<path fill="#1C3173" d="M302.6,112.1H315c0,4.8-1,8.1-3.9,10.8c-2.5,2.3-5.4,3-8.5,3c-4.3,0-7.3-1.6-9.2-3.6
		c-1.8-1.8-3.5-4.7-3.5-8.7c0-3.8,1.5-6.9,3.6-9c2-2,5.1-3.5,9.3-3.5c2.2,0,4.6,0.5,6.5,1.6c1.9,1.2,3.4,3.1,4.3,4.9l-5.9,2.4
		c-0.4-1.1-1.1-1.9-1.7-2.4c-1-0.9-2.2-1.2-3.3-1.2c-1.5,0-3,0.5-4.1,1.7c-1.4,1.4-2.1,3.6-2.1,5.5c0,2.2,0.8,4,1.9,5.2
		c1.2,1.2,2.6,1.8,4.4,1.8c1.1,0,2.3-0.2,3.5-1.1c0.6-0.5,1.3-1.3,1.5-2.7h-5.1v-4.7H302.6z"/>
	<path fill="#1C3173" d="M332.6,107h-7.4v4h7v5.3h-7v4.1h7.4v5.3H319v-24h13.6V107z"/>
	<path fill="#1C3173" d="M346.3,101.7c1.8,0,4.1,0.3,5.9,2.1c1.4,1.4,2.1,3.5,2.1,5.4c0,2.1-0.7,3.9-1.9,5c-0.9,0.9-2.2,1.4-3.3,1.7
		l7.5,9.8h-7.7l-6-9.2v9.2h-6.2v-24H346.3z M342.8,112.5h1.2c0.9,0,2.3-0.3,3-1c0.5-0.5,0.8-1.3,0.8-2s-0.3-1.5-0.8-2
		c-0.6-0.6-1.6-0.9-3-0.9h-1.2V112.5z"/>
</g>
</svg>
